<?xml version="1.0" encoding="UTF-8"?>
<svg version="1.1" xmlns="http://www.w3.org/2000/svg" width="537" height="420">
<path d="M0 0 C15.24257729 1.97547393 32.1949964 14.69403417 41.9296875 26.30078125 C51.31603627 38.93005309 54.35856258 52.47004176 53 68 C50.61023578 82.91058467 44.02937904 94.74011252 33 105 C32.36191406 105.64324219 31.72382813 106.28648437 31.06640625 106.94921875 C20.08673355 117.55858209 6.19362348 124.66039177 -8 130 C-8.68288086 130.26876953 -9.36576172 130.53753906 -10.06933594 130.81445312 C-22.29647838 135.57095781 -34.78182137 138.3900782 -47.625 140.875 C-48.40313049 141.02629364 -49.18126099 141.17758728 -49.98297119 141.33346558 C-58.62035923 142.99641163 -67.20533227 144.46662744 -76 145 C-75.71202843 147.72960284 -75.42040269 150.45869724 -75.125 153.1875 C-75.03621582 154.0125 -74.94743164 154.8375 -74.85595703 155.6875 C-74.34265286 160.32798623 -73.70118685 164.90286032 -72.875 169.5 C-72.03893823 174.79955284 -71.72180922 180.0189481 -71.625 185.375 C-71.59905762 186.12458984 -71.57311523 186.87417969 -71.54638672 187.64648438 C-71.52462412 194.15205154 -73.52145998 198.06880902 -77.75390625 203.07421875 C-83.42682886 208.13451473 -89.69360316 211.65765182 -97.421875 212.15625 C-104.9287328 211.63853567 -111.55424326 208.10539695 -117 203 C-117 202.34 -117 201.68 -117 201 C-117.66 201 -118.32 201 -119 201 C-123.49979494 193.17426968 -123.16036133 185.90821659 -122.22265625 177.25 C-122.13245712 176.35128174 -122.042258 175.45256348 -121.94932556 174.52661133 C-121.6620576 171.68348318 -121.36248771 168.84181126 -121.0625 166 C-120.86441704 164.06128125 -120.66714331 162.12247964 -120.47070312 160.18359375 C-119.98982035 155.45471961 -119.49790793 150.72711061 -119 146 C-119.95197266 145.96841797 -120.90394531 145.93683594 -121.88476562 145.90429688 C-132.36834969 145.45953876 -142.28331844 143.83449804 -152.5 141.5 C-153.27770752 141.32559387 -154.05541504 141.15118774 -154.85668945 140.97149658 C-168.72474297 137.83845668 -181.95170188 133.70079392 -195 128 C-196.21042969 127.47664063 -197.42085937 126.95328125 -198.66796875 126.4140625 C-204.17998732 123.83275497 -209.22203243 120.65851559 -214.25 117.25 C-215.11177856 116.66605469 -215.11177856 116.66605469 -215.9909668 116.0703125 C-217.36739581 115.10145553 -218.68975704 114.05664755 -220 113 C-220 112.34 -220 111.68 -220 111 C-220.59296875 110.72800781 -221.1859375 110.45601563 -221.796875 110.17578125 C-231.57525807 104.9571761 -237.85515606 92.9447217 -241.5 82.9375 C-245.6450333 67.75746695 -244.03440025 50.7472048 -236.5 37 C-228.7217072 23.69271366 -216.92509851 11.847719 -202 7 C-198.9375 6.75 -198.9375 6.75 -197 7 C-198.43358243 10.56479053 -200.05659445 11.96206823 -203.3125 13.9375 C-206.15071702 15.7307786 -208.62799141 17.43411218 -210.9375 19.875 C-211.618125 20.57625 -212.29875 21.2775 -213 22 C-213.66 22 -214.32 22 -215 22 C-215.27972656 22.57492188 -215.55945313 23.14984375 -215.84765625 23.7421875 C-216.96355391 25.92859037 -218.18695752 28.01349214 -219.4375 30.125 C-223.80870952 37.98800411 -226.46229106 46.02504728 -224.2734375 54.96875 C-219.30686361 72.250812 -210.42466823 84.54390597 -195 94 C-194.09894531 94.58265625 -193.19789063 95.1653125 -192.26953125 95.765625 C-184.23458422 100.75358132 -175.91363948 103.99644519 -167 107 C-166.36030273 107.22429687 -165.72060547 107.44859375 -165.06152344 107.6796875 C-118.15200745 123.96272521 -57.72262744 120.31696665 -13 99 C-11.8140625 98.43925781 -10.628125 97.87851563 -9.40625 97.30078125 C7.65808142 88.90290298 22.34343487 75.74460702 30 58 C33.54782806 47.52076712 32.18699424 36.81938801 27.625 26.87890625 C21.99103163 16.89757286 13.34600402 11.11806689 4 5 C1.61328125 3.37109375 1.61328125 3.37109375 0 2 C0 1.34 0 0.68 0 0 Z M-82 177 C-82.66 182.61 -83.32 188.22 -84 194 C-84.99 194.33 -85.98 194.66 -87 195 C-87 195.66 -87 196.32 -87 197 C-87.99 197.33 -88.98 197.66 -90 198 C-89.34 198.33 -88.68 198.66 -88 199 C-85.06861107 197.68087498 -83.37853471 196.71200577 -81.8515625 193.83984375 C-80.80354238 190.34484087 -80.80690559 187.33055096 -80.875 183.6875 C-80.89304687 182.43324219 -80.91109375 181.17898438 -80.9296875 179.88671875 C-80.95289063 178.93410156 -80.97609375 177.98148438 -81 177 C-81.33 177 -81.66 177 -82 177 Z " fill="#3B82F5" transform="translate(359,125)"/>
<path d="M0 0 C2.03081324 1.45171415 3.85194191 2.98863079 5.6875 4.6796875 C6.37585938 5.28941406 7.06421875 5.89914063 7.7734375 6.52734375 C15.96398282 14.1850469 20.46154995 22.94728855 21.0234375 34.23046875 C21.30284658 48.75672041 17.62464615 58.39284605 10.68579102 71.02001953 C8.4823709 74.63482566 8.4823709 74.63482566 7.6875 78.6796875 C9.3434174 79.88610551 9.3434174 79.88610551 11.5 81.1171875 C24.91189521 89.86866 34.31026283 102.425678 38.3125 117.984375 C38.81300624 121.58176358 38.74918202 125.04815851 38.6875 128.6796875 C29.40289186 132.01122336 20.17566407 134.32085277 10.4375 135.9296875 C8.96700195 136.17380371 8.96700195 136.17380371 7.46679688 136.42285156 C0.56069018 137.5107366 -6.34016831 138.18408247 -13.3125 138.6796875 C-14.91371264 134.33849366 -15.71624196 130.35033823 -16.1640625 125.75 C-16.29296875 124.4609375 -16.421875 123.171875 -16.5546875 121.84375 C-16.68244238 120.49741013 -16.81004467 119.15105576 -16.9375 117.8046875 C-17.07228225 116.43483326 -17.20769295 115.06504071 -17.34375 113.6953125 C-17.67284737 110.35732493 -17.99554353 107.01884611 -18.3125 103.6796875 C-21.2825 103.3496875 -24.2525 103.0196875 -27.3125 102.6796875 C-27.36784912 103.48599609 -27.42319824 104.29230469 -27.48022461 105.12304688 C-27.73453004 108.80875559 -27.99223658 112.49421908 -28.25 116.1796875 C-28.33701172 117.448125 -28.42402344 118.7165625 -28.51367188 120.0234375 C-28.95302377 126.27199783 -29.4429787 132.47553552 -30.3125 138.6796875 C-47.25862541 139.31871737 -68.81922375 138.42632562 -84.3125 130.6796875 C-84.87101001 114.03608931 -77.87440443 101.35901861 -67.09765625 89.17578125 C-63.50767026 85.43420276 -59.84732883 82.21075476 -55.3125 79.6796875 C-54.3225 79.6796875 -53.3325 79.6796875 -52.3125 79.6796875 C-54.72647539 73.8786029 -57.4714481 68.31009071 -60.3515625 62.72851562 C-65.9092867 51.79337508 -69.23437667 40.68976145 -66.23046875 28.3515625 C-61.67687731 15.09770485 -54.72212408 5.50705593 -42.3125 -1.3203125 C-28.66633553 -7.03214356 -13.11673664 -7.48894761 0 0 Z M-42.0625 11.6796875 C-43.135 12.3396875 -44.2075 12.9996875 -45.3125 13.6796875 C-45.3125 14.3396875 -45.3125 14.9996875 -45.3125 15.6796875 C-46.21742188 16.05480469 -46.21742188 16.05480469 -47.140625 16.4375 C-49.63662643 17.86506917 -50.57327161 19.11860402 -52.0625 21.5546875 C-52.70445312 22.57175781 -52.70445312 22.57175781 -53.359375 23.609375 C-54.59129233 25.90539842 -54.59129233 25.90539842 -54.3125 29.6796875 C-51.8988284 29.50119637 -51.8988284 29.50119637 -49.3125 28.6796875 C-47.74077345 26.8269715 -47.74077345 26.8269715 -46.5625 24.4921875 C-43.76661105 19.88116646 -40.75542708 17.6408999 -36.0703125 15.06640625 C-35.49023438 14.60878906 -34.91015625 14.15117188 -34.3125 13.6796875 C-34.3125 12.3596875 -34.3125 11.0396875 -34.3125 9.6796875 C-38.1789136 9.6796875 -39.00269314 9.79672943 -42.0625 11.6796875 Z M-33.3125 87.6796875 C-33.05527844 91.36652991 -32.45669243 93.46572453 -30.375 96.5546875 C-26.60255235 99.17230423 -24.14882613 99.46623208 -19.62890625 99.23046875 C-16.9911653 98.81716457 -16.9911653 98.81716457 -14.6875 96.0546875 C-13.28250817 92.60607119 -12.96213629 90.35850645 -13.3125 86.6796875 C-16.33111764 85.17037868 -19.44241303 85.49529906 -22.75 85.4921875 C-23.7719043 85.47381836 -23.7719043 85.47381836 -24.81445312 85.45507812 C-28.54079809 85.44412902 -30.13241571 85.55963131 -33.3125 87.6796875 Z " fill="#3B82F5" transform="translate(284.3125,96.3203125)"/>
<path d="M0 0 C1.13192596 3.39577788 0.69717072 5.53922448 0 9 C-1.0279498 22.26450605 1.56412678 35.84619017 9 47 C9 48.32 9 49.64 9 51 C7.62910386 52.16526172 6.24920576 53.3211716 4.83203125 54.4296875 C-8.13442221 65.54379046 -14.85905029 82.68024033 -18 99 C-26.66677344 97.90492032 -33.68296238 90.50209363 -39.953125 84.8359375 C-41 83 -41 83 -41 80.17578125 C-39.74975324 76.20527103 -37.58808221 73.73579878 -34.75 70.8125 C-34.27175781 70.29236328 -33.79351562 69.77222656 -33.30078125 69.23632812 C-30.45819528 66.22041375 -27.6589829 63.94300005 -24 62 C-24.54126078 57.07603037 -26.17620148 53.24445991 -28.5 48.9375 C-33.24410773 40.08754802 -34.44594645 31.68996616 -31.875 21.875 C-29.356783 14.34399423 -24.50512345 8.503547 -18 4 C-5.6328987 -1.81057458 -5.6328987 -1.81057458 0 0 Z " fill="#3B82F5" transform="translate(202,120)"/>
<path d="M0 0 C9.10338326 0.49654818 17.53380551 3.38684654 24 10 C29.5838292 17.24823983 32.38864695 23.53360797 32.3125 32.8125 C32.30512817 33.87307617 32.30512817 33.87307617 32.29760742 34.95507812 C32.10741203 43.45242319 29.77357915 49.22578441 25.140625 56.203125 C23.76806239 58.36538117 22.83133539 60.58156977 22 63 C22.66 63.185625 23.32 63.37125 24 63.5625 C31.30123925 67.06101048 36.96574992 73.09386744 40.0625 80.5625 C40 83 40 83 38.0625 85.4375 C34.47059499 88.44297154 30.80141955 91.26656276 27 94 C26.43667969 94.43054688 25.87335938 94.86109375 25.29296875 95.3046875 C21.5528666 98.05058528 21.5528666 98.05058528 18.92138672 97.80981445 C17 97 17 97 15.5078125 93.60546875 C15.0339611 92.13691686 14.57383625 90.66388946 14.125 89.1875 C9.06155824 73.86750707 1.76106546 62.1579339 -10 51 C-8.9706387 47.56879565 -7.75461901 44.45685908 -6.0625 41.3125 C-1.3850479 32.0610284 -0.59802204 23.11114187 -0.875 12.875 C-0.91811231 10.64330373 -0.9573986 8.41152904 -0.9921875 6.1796875 C-1.01651855 5.20757324 -1.04084961 4.23545898 -1.06591797 3.23388672 C-1 1 -1 1 0 0 Z " fill="#3B82F4" transform="translate(322,119)"/>
<path d="M0 0 C-0.73046875 1.93359375 -0.73046875 1.93359375 -2 4 C-3.98828125 4.72265625 -3.98828125 4.72265625 -6.3125 5.0625 C-10.19730074 5.79128615 -12.75145188 6.64480261 -16 9 C-17.01707031 9.72703125 -17.01707031 9.72703125 -18.0546875 10.46875 C-27.27917484 17.30170358 -36.95659137 27.01441503 -39.58984375 38.59375 C-39.8406772 40.88152622 -39.8406772 40.88152622 -39.83203125 42.96484375 C-40 45 -40 45 -40.953125 47.3671875 C-45.76806785 59.47640943 -41.82054238 72.98523708 -36.95703125 84.4609375 C-36.07337318 86.18139596 -36.07337318 86.18139596 -34 87 C-33.33333333 88.66666667 -32.66666667 90.33333333 -32 92 C-31.34 92.33 -30.68 92.66 -30 93 C-30 93.99 -30 94.98 -30 96 C-28.2421875 96.94401042 -26.484375 97.88802083 -24.7265625 98.83203125 C-23 100 -23 100 -21 103 C-19.515 103.495 -19.515 103.495 -18 104 C-16.64631404 105.31266518 -15.31200404 106.64567325 -14 108 C-13.01 108.495 -13.01 108.495 -12 109 C-12 109.66 -12 110.32 -12 111 C-9.03 111.99 -6.06 112.98 -3 114 C-3 114.66 -3 115.32 -3 116 C-2.05125 116.2475 -1.1025 116.495 -0.125 116.75 C2.79334228 117.58381208 5.56829212 118.59655841 8.375 119.75 C15.8063537 122.79639344 23.41700266 125.3609058 31 128 C31 128.66 31 129.32 31 130 C23.34436607 129.5179786 16.72828574 126.97247393 9.625 124.1875 C9.0110437 123.94822784 8.3970874 123.70895569 7.76452637 123.46243286 C-3.39565882 119.07200191 -13.70338614 113.66109846 -23 106 C-23 105.34 -23 104.68 -23 104 C-23.59296875 103.72800781 -24.1859375 103.45601563 -24.796875 103.17578125 C-34.57525807 97.9571761 -40.85515606 85.9447217 -44.5 75.9375 C-48.6450333 60.75746695 -47.03440025 43.7472048 -39.5 30 C-32.22910408 17.56078018 -16.15216289 -2.08415005 0 0 Z " fill="#417EE5" transform="translate(162,132)"/>
<path d="M0 0 C0.33 1.32 0.66 2.64 1 4 C-8.16415481 8.74379778 -17.50903332 13.01866543 -26.98046875 17.109375 C-28.74289956 17.88661721 -30.47790862 18.72545332 -32.20703125 19.57421875 C-37.63444335 21.89335264 -43.59911316 22.60014385 -49.375 23.625 C-51.73758722 24.05133153 -54.09960426 24.48083941 -56.4609375 24.9140625 C-57.50040527 25.0992041 -58.53987305 25.2843457 -59.61083984 25.47509766 C-61.94193116 25.76229733 -61.94193116 25.76229733 -63 27 C-65.71247924 27.21367451 -68.40813549 27.3773322 -71.125 27.5 C-72.62774494 27.56995537 -74.13035648 27.64284194 -75.6328125 27.71875 C-76.30199707 27.74904297 -76.97118164 27.77933594 -77.66064453 27.81054688 C-79.55144729 27.96367388 -81.43373594 28.21972032 -83.30883789 28.50708008 C-89.94031058 29.39265077 -96.63234533 29.19386365 -103.3125 29.1875 C-104.0817984 29.1882251 -104.8510968 29.1889502 -105.64370728 29.18969727 C-119.83571851 29.1882239 -133.87323094 28.41625521 -148 27 C-148 26.34 -148 25.68 -148 25 C-152.29 24.01 -156.58 23.02 -161 22 C-157.52032925 19.6802195 -157.06934682 19.8600374 -153.16015625 20.609375 C-152.18933105 20.78629883 -151.21850586 20.96322266 -150.21826172 21.14550781 C-148.65615967 21.44473145 -148.65615967 21.44473145 -147.0625 21.75 C-96.4775381 30.79524488 -45.28747886 24.93286063 0 0 Z " fill="#4F8BE7" transform="translate(361,216)"/>
<path d="M0 0 C1.32 0.66 2.64 1.32 4 2 C3.34 2 2.68 2 2 2 C2.28797157 4.72960284 2.57959731 7.45869724 2.875 10.1875 C2.96378418 11.0125 3.05256836 11.8375 3.14404297 12.6875 C3.65734714 17.32798623 4.29881315 21.90286032 5.125 26.5 C5.96106177 31.79955284 6.27819078 37.0189481 6.375 42.375 C6.40094238 43.12458984 6.42688477 43.87417969 6.45361328 44.64648438 C6.47218965 50.19957912 5.07987701 53.3862712 2 58 C1.01 58 0.02 58 -1 58 C-0.525625 57.2575 -0.05125 56.515 0.4375 55.75 C3.27018013 50.76448296 3.1793772 46.6503819 3 41 C2.67 40.01 2.34 39.02 2 38 C1.01 38 0.02 38 -1 38 C-0.88140625 38.72445312 -0.7628125 39.44890625 -0.640625 40.1953125 C0.41237113 48.09278351 0.41237113 48.09278351 -1.5625 52.4375 C-5.05877491 56.11307106 -8.82146524 59.37229882 -14 60 C-16.33300933 60.03888349 -18.66709801 60.0448635 -21 60 C-21 59.01 -21 58.02 -21 57 C-20.34 57 -19.68 57 -19 57 C-19 56.34 -19 55.68 -19 55 C-16.03 54.01 -13.06 53.02 -10 52 C-10 52.99 -10 53.98 -10 55 C-7.13367003 53.94901234 -6.16993357 53.33137046 -4.75 50.5625 C-3.85955062 47.96513149 -3.85955062 47.96513149 -4 45 C-4.99 47.475 -4.99 47.475 -6 50 C-6.66 50 -7.32 50 -8 50 C-7.84402344 49.04609375 -7.68804687 48.0921875 -7.52734375 47.109375 C-6.74687155 41.66115778 -6.65336063 36.17083688 -6.48242188 30.67578125 C-6.44826172 29.85980469 -6.41410156 29.04382813 -6.37890625 28.203125 C-6.3538501 27.46739258 -6.32879395 26.73166016 -6.30297852 25.97363281 C-6 24 -6 24 -4 21 C-2.515 25.455 -2.515 25.455 -1 30 C1.16577207 26.7513419 1.24955466 25.81398653 1.1875 22.0625 C1.18105469 21.20785156 1.17460937 20.35320312 1.16796875 19.47265625 C1.08478632 17.07282558 1.08478632 17.07282558 0.4921875 15.10546875 C-0.20227703 12.13470382 -0.0929506 9.29506013 -0.0625 6.25 C-0.05347656 5.07953125 -0.04445313 3.9090625 -0.03515625 2.703125 C-0.02355469 1.81109375 -0.01195312 0.9190625 0 0 Z " fill="#4785E7" transform="translate(281,268)"/>
<path d="M0 0 C15.24257729 1.97547393 32.1949964 14.69403417 41.9296875 26.30078125 C51.31603627 38.93005309 54.35856258 52.47004176 53 68 C51.05769848 80.11870656 46.48854227 91.0274619 38 100 C35.78125 101.2578125 35.78125 101.2578125 34 102 C34.54871757 100.7646191 35.11486899 99.53697975 35.6875 98.3125 C36.00074219 97.62800781 36.31398438 96.94351563 36.63671875 96.23828125 C38 94 38 94 40.4375 91.609375 C48.91126433 82.98060278 49.67624069 71.44308487 49.8125 59.9375 C49.71233444 49.0459261 48.78088478 40.85768714 42 32 C41.30132812 31.08734375 40.60265625 30.1746875 39.8828125 29.234375 C30.99071361 18.66511867 19.42136893 9.61344548 6 6 C2.5625 4 2.5625 4 0 2 C0 1.34 0 0.68 0 0 Z " fill="#6696EB" transform="translate(359,125)"/>
<path d="M0 0 C0 0.99 0 1.98 0 3 C-1.34191406 3.27650391 -1.34191406 3.27650391 -2.7109375 3.55859375 C-11.6869013 5.71167675 -17.93940577 8.64155749 -24 16 C-27.80164515 22.76043134 -29.87643749 29.32366481 -28 37 C-27.855625 38.0725 -27.71125 39.145 -27.5625 40.25 C-27.23633324 43.13104112 -27.23633324 43.13104112 -25 45 C-24.67 46.175625 -24.34 47.35125 -24 48.5625 C-23.67 49.696875 -23.34 50.83125 -23 52 C-22.34 52.33 -21.68 52.66 -21 53 C-19.40320649 57.3701717 -18.46524354 60.54920627 -20 65 C-22.21484375 66.9140625 -22.21484375 66.9140625 -24.9375 68.625 C-28.15642304 70.67214242 -29.85679878 71.78519817 -32 75 C-32.66 75 -33.32 75 -34 75 C-34.28875 75.78375 -34.5775 76.5675 -34.875 77.375 C-36 80 -36 80 -38 82 C-38.66 82 -39.32 82 -40 82 C-37.26712939 73.8740709 -30.38364094 67.16513079 -23 63 C-23.54126078 58.07603037 -25.17620148 54.24445991 -27.5 49.9375 C-32.24410773 41.08754802 -33.44594645 32.68996616 -30.875 22.875 C-28.356783 15.34399423 -23.50512345 9.503547 -17 5 C-11.58370438 2.45520079 -6.05010303 0 0 0 Z " fill="#3C7AE6" transform="translate(201,119)"/>
<path d="M0 0 C2.11842204 3.17763305 3.50721672 6.34503919 5 9.84375 C6.03308442 12.21554255 6.03308442 12.21554255 8 15 C8 16.32 8 17.64 8 19 C6.62910386 20.16526172 5.24920576 21.3211716 3.83203125 22.4296875 C-9.13442221 33.54379046 -15.85905029 50.68024033 -19 67 C-28.25326417 65.830815 -35.93319909 57.62585765 -42 51 C-41.67 50.01 -41.34 49.02 -41 48 C-39.515 47.505 -39.515 47.505 -38 47 C-37.87625 47.639375 -37.7525 48.27875 -37.625 48.9375 C-37.41875 49.618125 -37.2125 50.29875 -37 51 C-36.34 51.33 -35.68 51.66 -35 52 C-34.67 52.99 -34.34 53.98 -34 55 C-31.03145515 57.19414185 -28.50820059 58.8305998 -25 60 C-23.3125 61.5625 -23.3125 61.5625 -22 63 C-21.80365967 62.43079834 -21.60731934 61.86159668 -21.4050293 61.27514648 C-20.50184463 58.66167031 -19.59470188 56.04958428 -18.6875 53.4375 C-18.2244043 52.09461914 -18.2244043 52.09461914 -17.75195312 50.72460938 C-12.94910522 36.92274119 -12.94910522 36.92274119 -9.75 33.8125 C-9.1725 33.214375 -8.595 32.61625 -8 32 C-8.13641377 29.78141747 -8.13641377 29.78141747 -9 28 C-8.34 28 -7.68 28 -7 28 C-6.67 27.34 -6.34 26.68 -6 26 C-5.030625 25.54625 -4.06125 25.0925 -3.0625 24.625 C0.07187022 22.96186478 0.8759417 22.25976906 2 19 C2.99 19 3.98 19 5 19 C3.97901752 15.51164321 2.7782235 12.51505289 0.875 9.4375 C-0.925471 6.1366365 -1.53687738 4.6507662 -1 1 C-0.67 0.67 -0.34 0.34 0 0 Z " fill="#3F7BE3" transform="translate(203,152)"/>
<path d="M0 0 C1.25346124 1.05512877 2.48249332 2.13985555 3.6875 3.25 C4.37585938 3.85972656 5.06421875 4.46945313 5.7734375 5.09765625 C12.495715 11.38261087 17.63445636 18.89469928 18.6875 28.25 C18.83398092 32.92223629 18.80562602 37.57745949 18.6875 42.25 C18.3575 42.25 18.0275 42.25 17.6875 42.25 C17.55472656 41.23679688 17.42195313 40.22359375 17.28515625 39.1796875 C17.10682416 37.82811796 16.92843575 36.47655586 16.75 35.125 C16.66298828 34.45984375 16.57597656 33.7946875 16.48632812 33.109375 C15.96119442 29.14169812 15.36935986 25.19373002 14.6875 21.25 C14.0275 21.25 13.3675 21.25 12.6875 21.25 C12.4915625 20.693125 12.295625 20.13625 12.09375 19.5625 C8.02782637 9.18738453 1.3187331 4.08375978 -8.578125 -0.62109375 C-19.14575798 -4.98401651 -32.51690395 -3.77623146 -43.02734375 0.08203125 C-45.303196 1.24524462 -46.59296751 2.39368651 -48.3125 4.25 C-49.323125 4.889375 -50.33375 5.52875 -51.375 6.1875 C-54.32151615 8.25633049 -54.86854081 9.15580173 -56.3125 12.25 C-58.4375 13.5 -58.4375 13.5 -60.3125 14.25 C-59.78678755 8.12764047 -55.69394942 5.32330943 -51.2890625 1.55859375 C-47.47003817 -1.40340543 -43.91232133 -3.32189663 -39.3125 -4.75 C-38.27222656 -5.08257812 -38.27222656 -5.08257812 -37.2109375 -5.421875 C-24.85724265 -8.74614198 -10.590356 -7.57044979 0 0 Z " fill="#5E91E8" transform="translate(286.3125,97.75)"/>
<path d="M0 0 C-0.73046875 1.93359375 -0.73046875 1.93359375 -2 4 C-3.98828125 4.72265625 -3.98828125 4.72265625 -6.3125 5.0625 C-10.19730074 5.79128615 -12.75145188 6.64480261 -16 9 C-17.01707031 9.72703125 -17.01707031 9.72703125 -18.0546875 10.46875 C-27.27917484 17.30170358 -36.95659137 27.01441503 -39.58984375 38.59375 C-39.8406772 40.88152622 -39.8406772 40.88152622 -39.83203125 42.96484375 C-40 45 -40 45 -40.96484375 47.328125 C-44.0248945 55.22652014 -43.45347311 64.06229287 -41 72 C-40.875 75 -40.875 75 -41 77 C-41.66 76.67 -42.32 76.34 -43 76 C-43 75.34 -43 74.68 -43 74 C-43.66 74 -44.32 74 -45 74 C-48.8847763 58.74285438 -46.30627827 41.64434101 -38.46240234 28.22485352 C-31.11229663 16.41323691 -15.51329725 -2.00171577 0 0 Z " fill="#4885E3" transform="translate(162,132)"/>
<path d="M0 0 C0.99 0 1.98 0 3 0 C3.23332031 0.58265625 3.46664062 1.1653125 3.70703125 1.765625 C8.95920738 13.56910209 18.09462701 22.31446026 29 29 C29.90105469 29.58265625 30.80210937 30.1653125 31.73046875 30.765625 C41.76463157 36.99465995 52.65416117 40.87365631 64 44 C64 44.99 64 45.98 64 47 C63.175 46.855625 62.35 46.71125 61.5 46.5625 C58.90365837 46.14523081 56.36096821 45.82931427 53.75 45.5625 C50 45 50 45 48 43 C46.29286064 42.1421837 44.55946732 41.33598484 42.8125 40.5625 C41.83152344 40.12421875 40.85054687 39.6859375 39.83984375 39.234375 C37.52873823 38.22982295 35.20838564 37.26331826 32.875 36.3125 C30 35 30 35 29 33 C27.3349295 31.99734453 25.66788001 30.99797497 24 30 C13.71857769 22.03479298 5.60035214 13.94411385 0 2 C0 1.34 0 0.68 0 0 Z " fill="#4A88E6" transform="translate(135,190)"/>
<path d="M0 0 C-1.32 0.33 -2.64 0.66 -4 1 C-4 1.66 -4 2.32 -4 3 C-20.11922845 11.19173905 -37.22603904 15.51342089 -54.875 18.9375 C-55.66993866 19.09297302 -56.46487732 19.24844604 -57.28390503 19.40863037 C-59.58080741 19.85364353 -61.87953348 20.28698346 -64.1796875 20.71484375 C-65.20678078 20.91117149 -65.20678078 20.91117149 -66.25462341 21.11146545 C-70.55088203 21.88646993 -74.63923611 22.11632004 -79 22 C-79 21.34 -79 20.68 -79 20 C-75.58817392 17.95125213 -72.75578988 17.68844874 -68.8125 17.5 C-64.02931072 17.20540268 -59.64925914 16.56739831 -55.01171875 15.41015625 C-51.96218285 14.78840621 -49.1018763 14.86800526 -46 15 C-46 14.34 -46 13.68 -46 13 C-45.01 12.67 -44.02 12.34 -43 12 C-42.34 11.34 -41.68 10.68 -41 10 C-41 10.66 -41 11.32 -41 12 C-29.66423997 9.33276234 -18.52286145 5.93114971 -7.93359375 1.046875 C-3.27639377 -1.09213126 -3.27639377 -1.09213126 0 0 Z " fill="#417DE6" transform="translate(366,247)"/>
<path d="M0 0 C1.0209375 0.00193359 1.0209375 0.00193359 2.0625 0.00390625 C7.09338846 0.09338846 7.09338846 0.09338846 9.375 2.375 C5.52609373 4.29945313 0.80551935 3.85029807 -3.4375 4.09375 C-6.51922513 4.16925082 -6.51922513 4.16925082 -8.625 5.375 C-8.13921457 8.49790635 -7.6263988 11.37080359 -6.625 14.375 C-3.61009443 15.37996852 -1.58318308 15.47835303 1.5625 15.4375 C2.46355469 15.42847656 3.36460937 15.41945312 4.29296875 15.41015625 C5.32357422 15.39275391 5.32357422 15.39275391 6.375 15.375 C7.24416887 13.96748779 8.09485149 12.5485479 8.9375 11.125 C9.41316406 10.33609375 9.88882812 9.5471875 10.37890625 8.734375 C11.50522151 6.06655375 11.3919313 5.02998232 10.375 2.375 C11.695 2.705 13.015 3.035 14.375 3.375 C15.1875 5.375 15.1875 5.375 15.375 8.375 C13.72359485 11.88919016 11.92535599 15.59982201 8.375 17.375 C8.045 18.365 7.715 19.355 7.375 20.375 C3.085 20.375 -1.205 20.375 -5.625 20.375 C-5.625 19.715 -5.625 19.055 -5.625 18.375 C-6.285 18.375 -6.945 18.375 -7.625 18.375 C-10.57673633 14.71484695 -11.22194239 11.07114069 -11.90234375 6.55859375 C-11.625 4.375 -11.625 4.375 -10.10546875 2.12109375 C-6.77938657 -0.22025859 -3.91318959 -0.1424341 0 0 Z " fill="#4487E7" transform="translate(260.625,178.625)"/>
<path d="M0 0 C0.66 1.32 1.32 2.64 2 4 C1.34 4 0.68 4 0 4 C-0.20496094 4.68707031 -0.40992188 5.37414062 -0.62109375 6.08203125 C-0.89050781 6.98308594 -1.15992188 7.88414063 -1.4375 8.8125 C-1.70433594 9.70582031 -1.97117188 10.59914063 -2.24609375 11.51953125 C-2.80387873 13.35473055 -3.39344575 15.18033726 -4 17 C-4.883392 29.62816105 -3.52370964 39.41978331 4 50 C4.77707538 51.35988192 5.52620495 52.7360271 6.25 54.125 C6.58515625 54.76695312 6.9203125 55.40890625 7.265625 56.0703125 C8 58 8 58 8 62 C8.66 62 9.32 62 10 62 C9.67 63.32 9.34 64.64 9 66 C8.34 66 7.68 66 7 66 C6.38125 64.51306641 6.38125 64.51306641 5.75 62.99609375 C3.70938257 58.23345553 1.3358489 53.651335 -1.0390625 49.04882812 C-6.65433966 38.00044883 -9.81399067 27.02512124 -6.87890625 14.56640625 C-5.12949794 9.45813398 -2.58359414 4.72846474 0 0 Z " fill="#3C79E4" transform="translate(225,110)"/>
<path d="M0 0 C-0.60328125 0.45890625 -1.2065625 0.9178125 -1.828125 1.390625 C-2.62734375 2.00421875 -3.4265625 2.6178125 -4.25 3.25 C-5.43335938 4.15492188 -5.43335938 4.15492188 -6.640625 5.078125 C-9.04914774 6.96431056 -9.04914774 6.96431056 -11.171875 9.234375 C-13 11 -13 11 -15 11 C-15.27972656 11.57492188 -15.55945313 12.14984375 -15.84765625 12.7421875 C-16.96355391 14.92859037 -18.18695752 17.01349214 -19.4375 19.125 C-24.34149908 28.01893916 -25.46843129 35.90270338 -25 46 C-25.99 46 -26.98 46 -28 46 C-28.08103404 43.08277452 -28.14051081 40.16780484 -28.1875 37.25 C-28.22520508 36.0125 -28.22520508 36.0125 -28.26367188 34.75 C-28.31950645 30.13434176 -28.30091036 27.50300692 -25 24 C-24.27954633 20.84881675 -24.27954633 20.84881675 -24 18 C-23.01 18 -22.02 18 -21 18 C-20.34 16.02 -19.68 14.04 -19 12 C-19.99 11.67 -20.98 11.34 -22 11 C-6.19073203 -3.09536602 -6.19073203 -3.09536602 0 0 Z " fill="#427FE8" transform="translate(159,136)"/>
<path d="M0 0 C9.16163605 0.67863971 17.44538942 3.29642099 24 10 C29.73428614 17.4435445 32.35405236 23.67648388 32.1875 33.1875 C32.18685547 33.89841797 32.18621094 34.60933594 32.18554688 35.34179688 C32.15892875 38.48569308 32.00063537 40.99809388 31 44 C30.34 44 29.68 44 29 44 C28.67 44.66 28.34 45.32 28 46 C27.67 44.68 27.34 43.36 27 42 C27.66 42 28.32 42 29 42 C28.88553375 38.95760755 28.75879267 35.91655331 28.625 32.875 C28.57859375 31.59109375 28.57859375 31.59109375 28.53125 30.28125 C28.31114982 25.5124128 27.80839517 21.48423193 26 17 C25.34 17 24.68 17 24 17 C23.46375 16.113125 22.9275 15.22625 22.375 14.3125 C17.19825448 6.3120751 7.68106947 4.36876743 -1 2 C-0.67 1.34 -0.34 0.68 0 0 Z " fill="#6091E7" transform="translate(322,119)"/>
<path d="M0 0 C7.42102005 3.26326105 12.50879334 9.88828272 16 17 C16.29777344 17.59941406 16.59554688 18.19882813 16.90234375 18.81640625 C18.55072332 22.33345575 19.35288543 25.11826026 19 29 C19.66 29 20.32 29 21 29 C23.08989285 33.1797857 22.20747381 38.10626666 21.1875 42.5 C19.05308011 48.79092179 16.66253607 54.91420326 14 61 C13.34 61 12.68 61 12 61 C11.67 61.99 11.34 62.98 11 64 C10.67 64 10.34 64 10 64 C10.28791521 59.48932843 11.08917195 56.56914813 13.4375 52.6875 C18.34707128 44.26296029 18.81678287 35.48095963 17 26 C14.19233405 16.07874094 8.65184659 7.76789773 0 2 C0 1.34 0 0.68 0 0 Z " fill="#3977E5" transform="translate(373,135)"/>
<path d="M0 0 C12.05065989 3.44304568 21.36757591 13.36212148 27.5 24 C31.60745087 31.45200225 34.70052902 39.36014211 34 48 C33.34 48 32.68 48 32 48 C31.78085937 46.96101563 31.56171875 45.92203125 31.3359375 44.8515625 C29.49070986 36.57286628 27.60809593 28.66562259 22 22 C21.34 22 20.68 22 20 22 C19.649375 20.96875 19.29875 19.9375 18.9375 18.875 C17.28002689 14.90832891 14.80775199 12.81745233 11.42578125 10.26171875 C10.95527344 9.84535156 10.48476563 9.42898437 10 9 C10 8.34 10 7.68 10 7 C9.278125 6.731875 8.55625 6.46375 7.8125 6.1875 C5.00233617 5.00098638 2.51583443 3.72514361 0 2 C0 1.34 0 0.68 0 0 Z " fill="#538CE6" transform="translate(289,175)"/>
<path d="M0 0 C11.97084762 1.43091765 20.68680637 10.9769702 29 19 C28.67 19.99 28.34 20.98 28 22 C27.34 22 26.68 22 26 22 C25.67 25.3 25.34 28.6 25 32 C24.67 32 24.34 32 24 32 C23.81824219 31.34773438 23.63648438 30.69546875 23.44921875 30.0234375 C23.19785156 29.14945313 22.94648438 28.27546875 22.6875 27.375 C22.44386719 26.51648438 22.20023437 25.65796875 21.94921875 24.7734375 C20.05383438 19.23548315 17.49518113 15.0739597 13.5625 10.75 C12.80066406 9.89921875 12.03882813 9.0484375 11.25390625 8.171875 C9.17410824 6.16777155 7.62246662 5.11305519 5 4 C3.31008021 3.0398183 1.63790712 2.04644066 0 1 C0 0.67 0 0.34 0 0 Z " fill="#3F81ED" transform="translate(368,132)"/>
<path d="M0 0 C0 0.66 0 1.32 0 2 C-9.28460814 5.33153586 -18.51183593 7.64116527 -28.25 9.25 C-29.72049805 9.49411621 -29.72049805 9.49411621 -31.22070312 9.74316406 C-38.12680982 10.8310491 -45.02766831 11.50439497 -52 12 C-52.625 10.125 -52.625 10.125 -53 8 C-52.34 7.34 -51.68 6.68 -51 6 C-50.67 6.66 -50.34 7.32 -50 8 C-49.02417969 7.98839844 -48.04835938 7.97679687 -47.04296875 7.96484375 C-45.77066406 7.95582031 -44.49835938 7.94679687 -43.1875 7.9375 C-41.92292969 7.92589844 -40.65835937 7.91429687 -39.35546875 7.90234375 C-36 8 -36 8 -33 9 C-33 8.34 -33 7.68 -33 7 C-26.34649272 4.74711943 -19.85192278 3.40897818 -12.8828125 2.52734375 C-8.04441621 1.64227126 -5.15455196 -0.23429782 0 0 Z " fill="#3B7EE7" transform="translate(323,223)"/>
<path d="M0 0 C0.66 0 1.32 0 2 0 C2.66 0.99 3.32 1.98 4 3 C4.99 3.33 5.98 3.66 7 4 C7 4.66 7 5.32 7 6 C7.66 6 8.32 6 9 6 C9 6.66 9 7.32 9 8 C9.66 8 10.32 8 11 8 C11.103125 8.639375 11.20625 9.27875 11.3125 9.9375 C11.539375 10.618125 11.76625 11.29875 12 12 C12.99 12.33 13.98 12.66 15 13 C20.76192752 21.16273065 29.93351382 34.68747507 28.625 44.9375 C28.315625 45.9584375 28.315625 45.9584375 28 47 C29.485 47.495 29.485 47.495 31 48 C29.515 48.495 29.515 48.495 28 49 C27.79246094 48.47535156 27.58492188 47.95070312 27.37109375 47.41015625 C26.69321288 45.70552695 26.00724638 44.00410607 25.31640625 42.3046875 C24.35077043 39.88056909 23.42750234 37.455826 22.52734375 35.0078125 C17.75451838 22.34932361 11.25546896 12.43988535 1.1796875 3.26953125 C0 2 0 2 0 0 Z " fill="#3877E4" transform="translate(312,168)"/>
<path d="M0 0 C0.35468279 8.94588804 -0.65473106 17.60442373 -1.70898438 26.46337891 C-2.23084482 31.01214568 -2.67599738 35.56856053 -3.125 40.125 C-3.21249512 41.00857178 -3.29999023 41.89214355 -3.39013672 42.80249023 C-3.59430843 44.86823965 -3.79729228 46.93410642 -4 49 C-4.66 49 -5.32 49 -6 49 C-7.22706322 43.62538666 -6.80175065 38.85684441 -6.22265625 33.4453125 C-6.13245712 32.54376434 -6.042258 31.64221619 -5.94932556 30.71334839 C-5.66111619 27.84975774 -5.36197297 24.98743239 -5.0625 22.125 C-4.86451029 20.1771568 -4.66723679 18.22924065 -4.47070312 16.28125 C-3.98875852 11.51994871 -3.49700852 6.75975145 -3 2 C-3.99 1.67 -4.98 1.34 -6 1 C-3.92446352 0.4465236 -2.15634036 0 0 0 Z " fill="#407FE1" transform="translate(243,269)"/>
<path d="M0 0 C1.258125 -0.04125 2.51625 -0.0825 3.8125 -0.125 C4.52019531 -0.14820312 5.22789062 -0.17140625 5.95703125 -0.1953125 C8 0 8 0 11 2 C10.34 3.32 9.68 4.64 9 6 C8.67 5.34 8.34 4.68 8 4 C2.14926709 4.79782722 -1.36772152 5.85749884 -5.125 10.5 C-6.70299531 12.4295694 -8.23458294 14.23458294 -10 16 C-9.67 13.36 -9.34 10.72 -9 8 C-10.32 7.34 -11.64 6.68 -13 6 C-12.34 5.67 -11.68 5.34 -11 5 C-10.67 4.34 -10.34 3.68 -10 3 C-9.34 3.66 -8.68 4.32 -8 5 C-7.34 4.01 -6.68 3.02 -6 2 C-2.875 1.3125 -2.875 1.3125 0 1 C0 0.67 0 0.34 0 0 Z " fill="#3C7BEC" transform="translate(242,103)"/>
<path d="M0 0 C1.25348607 2.95106435 1.01044806 3.97406463 -0.21484375 7.015625 C-1.06755859 8.61664063 -1.06755859 8.61664063 -1.9375 10.25 C-2.50339844 11.32765625 -3.06929688 12.4053125 -3.65234375 13.515625 C-4.09707031 14.33546875 -4.54179687 15.1553125 -5 16 C-4.25878906 16.26296875 -3.51757812 16.5259375 -2.75390625 16.796875 C3.66907876 19.60294505 8.6333387 24.94000965 12 31 C12.75 33.375 12.75 33.375 13 35 C11 33.625 11 33.625 9 32 C9 31.34 9 30.68 9 30 C8.34 30 7.68 30 7 30 C5.91280319 28.78939166 4.87945376 27.53009456 3.875 26.25 C0.32272555 22.0321415 -2.94906051 20.12671136 -8 18 C-7.31595098 11.15950976 -4.38240925 5.2588911 0 0 Z " fill="#6293E9" transform="translate(349,166)"/>
<path d="M0 0 C0.33 0 0.66 0 1 0 C2.71006036 17.80072822 2.32779835 31.11216555 -9.1328125 45.828125 C-10.69127472 47.64089696 -12.27357616 49.34863806 -14 51 C-14.66 50.67 -15.32 50.34 -16 50 C-14.0572127 46.33029065 -12.57777814 43.55374257 -9.55859375 40.66015625 C0.80367563 29.88656014 0.02540578 13.92418255 0 0 Z " fill="#5089E6" transform="translate(409,176)"/>
<path d="M0 0 C1.0209375 0.00193359 1.0209375 0.00193359 2.0625 0.00390625 C7.09338846 0.09338846 7.09338846 0.09338846 9.375 2.375 C5.52609373 4.29945313 0.80551935 3.85029807 -3.4375 4.09375 C-6.51922513 4.16925082 -6.51922513 4.16925082 -8.625 5.375 C-8.11053951 9.79936025 -7.01117933 12.64011061 -4.625 16.375 C-4.625 17.035 -4.625 17.695 -4.625 18.375 C-3.635 18.705 -2.645 19.035 -1.625 19.375 C-2.945 19.705 -4.265 20.035 -5.625 20.375 C-5.625 19.715 -5.625 19.055 -5.625 18.375 C-6.285 18.375 -6.945 18.375 -7.625 18.375 C-10.57673633 14.71484695 -11.22194239 11.07114069 -11.90234375 6.55859375 C-11.625 4.375 -11.625 4.375 -10.10546875 2.12109375 C-6.77938657 -0.22025859 -3.91318959 -0.1424341 0 0 Z " fill="#4F84E0" transform="translate(260.625,178.625)"/>
<path d="M0 0 C0.66 0.33 1.32 0.66 2 1 C1.01 11.56 0.02 22.12 -1 33 C-4.96 33 -8.92 33 -13 33 C-13 32.67 -13 32.34 -13 32 C-9.7 32 -6.4 32 -3 32 C-2.67 21.77 -2.34 11.54 -2 1 C-1.34 0.67 -0.68 0.34 0 0 Z " fill="#4A83DF" transform="translate(255,201)"/>
<path d="M0 0 C0.33 0.66 0.66 1.32 1 2 C0.39671875 2.35191406 -0.2065625 2.70382813 -0.828125 3.06640625 C-6.31277903 6.45450704 -9.29898722 9.12823309 -12 15 C-12.66 15 -13.32 15 -14 15 C-14.66 16.32 -15.32 17.64 -16 19 C-18.31 18.67 -20.62 18.34 -23 18 C-23 16.02 -23 14.04 -23 12 C-22.34 11.67 -21.68 11.34 -21 11 C-21 12.65 -21 14.3 -21 16 C-19.08364496 15.81838634 -19.08364496 15.81838634 -17 15 C-15.46431356 13.09511309 -15.46431356 13.09511309 -14.1875 10.75 C-11.06915416 5.79222484 -7.6383393 2.02850581 -1.7890625 0.375 C-1.19867188 0.25125 -0.60828125 0.1275 0 0 Z " fill="#5189E8" transform="translate(251,110)"/>
<path d="M0 0 C0 0.99 0 1.98 0 3 C-1.34191406 3.27650391 -1.34191406 3.27650391 -2.7109375 3.55859375 C-11.76567726 5.7305729 -17.7604203 8.73070578 -24 16 C-25.01567807 17.65715896 -26.02009861 19.3214378 -27 21 C-27.33 21 -27.66 21 -28 21 C-28.34512733 17.7788116 -28.1811277 16.29273163 -26.453125 13.5 C-19.6219259 5.74828471 -10.68185553 0 0 0 Z " fill="#5D8EEA" transform="translate(201,119)"/>
<path d="M0 0 C0 0.33 0 0.66 0 1 C-15.43101719 3.72598411 -30.34443404 4.37994217 -46 4 C-46 3.67 -46 3.34 -46 3 C-40.06 2.505 -40.06 2.505 -34 2 C-34 1.67 -34 1.34 -34 1 C-22.64753762 0.13387208 -11.38380184 -0.11858127 0 0 Z " fill="#5A91E7" transform="translate(295,241)"/>
<path d="M0 0 C0.80824219 0.10183594 1.61648437 0.20367187 2.44921875 0.30859375 C3.06410156 0.39238281 3.67898437 0.47617188 4.3125 0.5625 C4.3125 1.2225 4.3125 1.8825 4.3125 2.5625 C19.63041542 6.16519747 19.63041542 6.16519747 35.3125 6.5625 C35.3125 6.8925 35.3125 7.2225 35.3125 7.5625 C40.7575 8.0575 40.7575 8.0575 46.3125 8.5625 C46.3125 8.8925 46.3125 9.2225 46.3125 9.5625 C30.9047438 10.14351874 16.15125685 8.14484169 1.1875 4.5 C0.51847656 4.33790039 -0.15054688 4.17580078 -0.83984375 4.00878906 C-3.80319071 3.23987851 -5.48370861 2.76629139 -7.6875 0.5625 C-4.59271121 -0.46909626 -3.16118607 -0.41232862 0 0 Z " fill="#3571E4" transform="translate(207.6875,225.4375)"/>
<path d="M0 0 C0.66 1.32 1.32 2.64 2 4 C1.34 4 0.68 4 0 4 C-0.20496094 4.68707031 -0.40992188 5.37414062 -0.62109375 6.08203125 C-0.89050781 6.98308594 -1.15992188 7.88414063 -1.4375 8.8125 C-1.70433594 9.70582031 -1.97117188 10.59914063 -2.24609375 11.51953125 C-2.80387873 13.35473055 -3.39344575 15.18033726 -4 17 C-4.08106686 18.55421729 -4.10756898 20.11167027 -4.09765625 21.66796875 C-4.09443359 22.56064453 -4.09121094 23.45332031 -4.08789062 24.37304688 C-4.07951172 25.30181641 -4.07113281 26.23058594 -4.0625 27.1875 C-4.05798828 28.12787109 -4.05347656 29.06824219 -4.04882812 30.03710938 C-4.03704626 32.35813712 -4.02059558 34.67903644 -4 37 C-7 35 -7 35 -7.58203125 32.3125 C-8.47310335 19.50522636 -6.15148216 11.258373 0 0 Z " fill="#4883E4" transform="translate(225,110)"/>
<path d="M0 0 C-0.73046875 1.93359375 -0.73046875 1.93359375 -2 4 C-3.98828125 4.72265625 -3.98828125 4.72265625 -6.3125 5.0625 C-16.06943472 6.89289475 -23.58753265 14.72791224 -31 21 C-30.05326698 15.81550965 -26.96906845 13.2551601 -23 10 C-7.63784969 -0.43644855 -7.63784969 -0.43644855 0 0 Z " fill="#66A1EC" transform="translate(162,132)"/>
<path d="M0 0 C-2.52788007 2.79872437 -4.20411134 4.45773019 -8 5 C-8 5.66 -8 6.32 -8 7 C-9.65 7.66 -11.3 8.32 -13 9 C-13 9.66 -13 10.32 -13 11 C-14.66666667 12.66666667 -16.33333333 14.33333333 -18 16 C-18.33 16.99 -18.66 17.98 -19 19 C-19.66 19 -20.32 19 -21 19 C-21.66 20.32 -22.32 21.64 -23 23 C-23 16.19838025 -19.71486749 12.42865957 -15.125 7.75 C-6.67374092 -0.57203494 -6.67374092 -0.57203494 0 0 Z " fill="#4E88E7" transform="translate(233,177)"/>
<path d="M0 0 C0.99 0.33 1.98 0.66 3 1 C4.24410958 10.48633553 5.45726216 20.82331648 2 30 C1.34 30.33 0.68 30.66 0 31 C0 20.77 0 10.54 0 0 Z " fill="#3D7CE2" transform="translate(321,121)"/>
<path d="M0 0 C0.61328125 1.828125 0.61328125 1.828125 1 4 C-0.8125 6.75 -0.8125 6.75 -3 9 C-3.66 9 -4.32 9 -5 9 C-5.309375 9.61875 -5.61875 10.2375 -5.9375 10.875 C-6.625 12.25 -7.3125 13.625 -8 15 C-8.66 15 -9.32 15 -10 15 C-10 15.66 -10 16.32 -10 17 C-15.2734375 20.22265625 -15.2734375 20.22265625 -17 21 C-17.66 20.67 -18.32 20.34 -19 20 C-16.24768946 16.47360212 -13.47672756 13.45902319 -10.0625 10.5625 C-6.26450369 7.33384279 -3.15018244 3.85897349 0 0 Z " fill="#4784E9" transform="translate(382,196)"/>
<path d="M0 0 C2.9667491 2.52433914 4.15962184 5.23895511 5.625 8.8125 C6.05039062 9.82957031 6.47578125 10.84664062 6.9140625 11.89453125 C8.95933494 17.74342186 9.13439896 23.25805799 9.0625 29.375 C9.05798828 30.11105469 9.05347656 30.84710938 9.04882812 31.60546875 C9.03715142 33.40368158 9.01922011 35.20185197 9 37 C8.01 37.495 8.01 37.495 7 38 C6.96261719 36.81664062 6.92523438 35.63328125 6.88671875 34.4140625 C6.50037157 24.43659378 5.8456353 15.69127061 1.3125 6.625 C0 4 0 4 0 0 Z " fill="#5A95E7" transform="translate(403,156)"/>
<path d="M0 0 C0.66163651 0.11381012 1.32327301 0.22762024 2.00495911 0.34487915 C4.11615945 0.71073141 6.22391114 1.09339889 8.33203125 1.4765625 C9.76347693 1.72767629 11.19511611 1.97768974 12.62695312 2.2265625 C16.13514694 2.83881409 19.64044408 3.46617998 23.14453125 4.1015625 C22.81453125 4.7615625 22.48453125 5.4215625 22.14453125 6.1015625 C18.84453125 5.7715625 15.54453125 5.4415625 12.14453125 5.1015625 C12.14453125 5.4315625 12.14453125 5.7615625 12.14453125 6.1015625 C9.17453125 6.1015625 6.20453125 6.1015625 3.14453125 6.1015625 C3.14453125 5.4415625 3.14453125 4.7815625 3.14453125 4.1015625 C-1.14546875 3.1115625 -5.43546875 2.1215625 -9.85546875 1.1015625 C-5.95311665 -1.50000557 -4.54869049 -0.80609705 0 0 Z " fill="#4584E9" transform="translate(209.85546875,236.8984375)"/>
<path d="M0 0 C0.33 0.99 0.66 1.98 1 3 C0.22914063 3.54269531 -0.54171875 4.08539063 -1.3359375 4.64453125 C-2.33882812 5.35996094 -3.34171875 6.07539063 -4.375 6.8125 C-5.37273437 7.52019531 -6.37046875 8.22789062 -7.3984375 8.95703125 C-10.16680648 10.91242339 -10.16680648 10.91242339 -12 14 C-12.66 14 -13.32 14 -14 14 C-14.28875 14.78375 -14.5775 15.5675 -14.875 16.375 C-16 19 -16 19 -18 21 C-18.66 21 -19.32 21 -20 21 C-16.75397712 11.46586998 -8.4544614 4.91677897 0 0 Z " fill="#5389E8" transform="translate(181,180)"/>
<path d="M0 0 C-2.96859301 7.34767772 -12.00157717 12.7807255 -19 16 C-21.1953125 15.58984375 -21.1953125 15.58984375 -23 15 C-21.43902526 13.8936781 -19.87614673 12.79004215 -18.3125 11.6875 C-17.00732422 10.76517578 -17.00732422 10.76517578 -15.67578125 9.82421875 C-8.59957173 5 -8.59957173 5 -6 5 C-6 4.01 -6 3.02 -6 2 C-2.25 0 -2.25 0 0 0 Z " fill="#4B84E4" transform="translate(391,229)"/>
<path d="M0 0 C1.6817239 3.36344779 1.38971175 7.16909995 1.5625 10.875 C1.6049585 11.72747314 1.64741699 12.57994629 1.69116211 13.45825195 C1.99707494 19.97474912 2.11719141 26.47634502 2 33 C1.34 33 0.68 33 0 33 C-0.99 23.43 -1.98 13.86 -3 4 C-2.34 4 -1.68 4 -1 4 C-0.67 2.68 -0.34 1.36 0 0 Z " fill="#397AE1" transform="translate(269,195)"/>
<path d="M0 0 C0.66 0.33 1.32 0.66 2 1 C1.835 1.99 1.67 2.98 1.5 4 C0.81867319 9.17061715 0.97476113 14.33704174 1.125 19.5390625 C1.15626849 21.3595833 1.08532077 23.18121082 1 25 C0.34 25.66 -0.32 26.32 -1 27 C-2 26 -2 26 -2.06591797 23.89868164 C-2.04158691 22.99496826 -2.01725586 22.09125488 -1.9921875 21.16015625 C-1.97542969 20.17982422 -1.95867187 19.19949219 -1.94140625 18.18945312 C-1.8972145 16.1085414 -1.84515859 14.02778149 -1.78515625 11.94726562 C-1.77097656 10.96564453 -1.75679687 9.98402344 -1.7421875 8.97265625 C-1.7201123 8.06781494 -1.69803711 7.16297363 -1.67529297 6.23071289 C-1.78244629 5.49457764 -1.88959961 4.75844238 -2 4 C-2.99 3.34 -3.98 2.68 -5 2 C-3.35 2 -1.7 2 0 2 C0 1.34 0 0.68 0 0 Z " fill="#4985E1" transform="translate(201,120)"/>
<path d="M0 0 C9.3720387 0.69422509 17.12874566 3.49039063 24 10 C22.21484375 10.63671875 22.21484375 10.63671875 20 11 C18.31640625 10.14453125 18.31640625 10.14453125 16.5625 8.8125 C11.19839869 5.16857539 5.19902016 3.69150093 -1 2 C-0.67 1.34 -0.34 0.68 0 0 Z " fill="#5E9AED" transform="translate(322,119)"/>
<path d="M0 0 C0.33 0.99 0.66 1.98 1 3 C-5.15496054 6.48224281 -10.78242912 9.31257197 -18 9 C-21.0625 8.0625 -21.0625 8.0625 -23 7 C-23 6.34 -23 5.68 -23 5 C-21.87464844 5.06960938 -21.87464844 5.06960938 -20.7265625 5.140625 C-13.28328085 5.40310848 -7.62934096 4.46059937 -1 1 C-0.67 0.67 -0.34 0.34 0 0 Z " fill="#4C86E3" transform="translate(277,328)"/>
<path d="M0 0 C-1.41632134 1.10460959 -2.83307264 2.20866788 -4.25 3.3125 C-5.03890625 3.92738281 -5.8278125 4.54226562 -6.640625 5.17578125 C-8.7462297 6.80379018 -10.86609343 8.40935863 -13 10 C-13 9.34 -13 8.68 -13 8 C-13.66 8 -14.32 8 -15 8 C-15 8.66 -15 9.32 -15 10 C-16.98 10.33 -18.96 10.66 -21 11 C-6.93457944 -3.46728972 -6.93457944 -3.46728972 0 0 Z " fill="#4E82DF" transform="translate(159,136)"/>
<path d="M0 0 C0.66 0.99 1.32 1.98 2 3 C1.55269531 3.58265625 1.10539063 4.1653125 0.64453125 4.765625 C-4.06829543 11.15657973 -7.23028412 17.57154541 -10 25 C-11.19140625 23.42578125 -11.19140625 23.42578125 -12 21 C-11.10419219 18.52370972 -10.18562961 16.47457209 -8.9375 14.1875 C-8.61257568 13.56601074 -8.28765137 12.94452148 -7.95288086 12.30419922 C-5.61770759 7.91892429 -3.0651261 3.90106959 0 0 Z " fill="#588CEC" transform="translate(130,151)"/>
<path d="M0 0 C0.66 0.66 1.32 1.32 2 2 C4.70600425 2.17505949 7.29658581 2.23371715 10 2.1875 C11.14553345 2.17783203 11.14553345 2.17783203 12.31420898 2.16796875 C17.92451891 2.09196921 23.43100123 1.70717445 29 1 C25.67697982 3.21534678 23.93695065 3.43115652 20.01953125 3.8515625 C18.85615234 3.98046875 17.69277344 4.109375 16.49414062 4.2421875 C15.27919922 4.36851562 14.06425781 4.49484375 12.8125 4.625 C10.97268555 4.82609375 10.97268555 4.82609375 9.09570312 5.03125 C6.06451581 5.36149609 3.03271036 5.68409927 0 6 C-1.125 2.25 -1.125 2.25 0 0 Z " fill="#3978DE" transform="translate(271,229)"/>
<path d="M0 0 C0.99 0 1.98 0 3 0 C3 0.66 3 1.32 3 2 C2.34 2 1.68 2 1 2 C-0.45732062 8.64990964 -1.45136137 15.2142064 -2 22 C-2.99 22 -3.98 22 -5 22 C-5.20688318 16.80789949 -4.55151644 12.59545346 -3.0625 7.625 C-2.70285156 6.40039062 -2.34320313 5.17578125 -1.97265625 3.9140625 C-1 1 -1 1 0 0 Z " fill="#4380DF" transform="translate(205,204)"/>
<path d="M0 0 C0.28515855 4.03499355 -0.38372611 6.20369055 -2.5 9.625 C-4.63218147 13.03212901 -4.63218147 13.03212901 -5 17 C-5.99 16.67 -6.98 16.34 -8 16 C-7.125 10.25 -7.125 10.25 -6 8 C-6.66 7.67 -7.32 7.34 -8 7 C-6.68 6.67 -5.36 6.34 -4 6 C-4 5.34 -4 4.68 -4 4 C-4.66 3.67 -5.32 3.34 -6 3 C-5.67 2.34 -5.34 1.68 -5 1 C-3.3176559 0.47426747 -1.77322566 0 0 0 Z " fill="#4380E7" transform="translate(297,159)"/>
<path d="M0 0 C0.33 0.66 0.66 1.32 1 2 C1.66 2 2.32 2 3 2 C4.38938077 3.96147874 5.7260411 5.96166576 7 8 C3.56638098 11.63559661 0.2026393 14.36113346 -4 17 C-3.40072174 13.64404172 -2.15377564 11.62198774 0 9 C0.66 9.33 1.32 9.66 2 10 C1.42547254 6.06924356 1.42547254 6.06924356 -1 3 C-0.67 2.01 -0.34 1.02 0 0 Z " fill="#457FE6" transform="translate(355,194)"/>
<path d="M0 0 C0.33 0 0.66 0 1 0 C2.39353151 10.37575093 1.67319823 17.65360354 -3 27 C-3.99 27 -4.98 27 -6 27 C-5.731875 26.360625 -5.46375 25.72125 -5.1875 25.0625 C-4.795625 24.051875 -4.40375 23.04125 -4 22 C-3.74734375 21.37996094 -3.4946875 20.75992188 -3.234375 20.12109375 C-0.75288015 13.51593833 -0.31425554 7.01114947 0 0 Z " fill="#4882E2" transform="translate(303,131)"/>
<path d="M0 0 C1.38263239 2.25506833 2.06691933 3.48161083 1.72265625 6.1484375 C1.39587891 7.25058594 1.39587891 7.25058594 1.0625 8.375 C0.06061109 12.29264253 0.00502126 15.02008504 1 19 C1.6875 21.75 1.6875 21.75 2 24 C1.34 24.66 0.68 25.32 0 26 C-3.04735898 16.45160852 -3.52539659 9.54048003 0 0 Z " fill="#4485E6" transform="translate(172,137)"/>
<path d="M0 0 C0.66 0.33 1.32 0.66 2 1 C0.24970445 5.30280989 -2.17769083 6.50844942 -6.125 8.65625 C-8.30576908 10.21913451 -8.89642011 11.59751636 -10 14 C-12.125 15.25 -12.125 15.25 -14 16 C-13.62555215 10.92212187 -11.30642294 9.00219834 -7.5625 5.75 C-6.07943359 4.44289063 -6.07943359 4.44289063 -4.56640625 3.109375 C-2 1 -2 1 0 0 Z " fill="#558EE9" transform="translate(240,96)"/>
<path d="M0 0 C0.66 0 1.32 0 2 0 C2.738041 17.07744875 2.738041 17.07744875 -2 23 C-2.99 23 -3.98 23 -5 23 C-4.525625 22.2575 -4.05125 21.515 -3.5625 20.75 C-0.95836533 16.16672297 -0.77706321 11.98897524 -0.4375 6.75 C-0.35371094 5.48671875 -0.26992188 4.2234375 -0.18359375 2.921875 C-0.12300781 1.95765625 -0.06242187 0.9934375 0 0 Z " fill="#5B8BE2" transform="translate(285,303)"/>
<path d="M0 0 C1.32504656 4.63733254 1.18406111 9.14713075 1.1875 13.9375 C1.19974609 14.83146484 1.21199219 15.72542969 1.22460938 16.64648438 C1.23475135 21.20023054 1.18020222 24.87226536 -1 29 C-1.66 29 -2.32 29 -3 29 C-2.8453125 28.04609375 -2.690625 27.0921875 -2.53125 26.109375 C-1.75173072 20.65822962 -1.61971647 15.17196856 -1.39453125 9.67578125 C-1.35714844 8.85980469 -1.31976563 8.04382813 -1.28125 7.203125 C-1.25095703 6.46739258 -1.22066406 5.73166016 -1.18945312 4.97363281 C-1 3 -1 3 0 0 Z " fill="#4F88EA" transform="translate(276,289)"/>
<path d="M0 0 C6.95660771 0.57021375 13.31427305 2.01302694 20 4 C18.515625 5.1171875 18.515625 5.1171875 16 6 C13.14045424 5.5004408 10.52504206 4.91436709 7.75 4.125 C7.00492188 3.92519531 6.25984375 3.72539062 5.4921875 3.51953125 C3.65799482 3.02571014 1.82849171 2.51452906 0 2 C0 1.34 0 0.68 0 0 Z " fill="#3D77E5" transform="translate(194,261)"/>
<path d="M0 0 C6.27 0.66 12.54 1.32 19 2 C19 2.66 19 3.32 19 4 C24.445 4.495 24.445 4.495 30 5 C30 5.33 30 5.66 30 6 C23.78443907 6.21507131 18.2495545 5.4595038 12.1875 4.125 C11.34251953 3.95097656 10.49753906 3.77695313 9.62695312 3.59765625 C5.80447074 2.77790228 3.30761509 2.20507673 0 0 Z " fill="#4380E5" transform="translate(209,227)"/>
<path d="M0 0 C0.9875471 2.60192051 1.16523059 3.63195697 0.00390625 6.21875 C-0.47175781 6.9715625 -0.94742187 7.724375 -1.4375 8.5 C-3.56441923 11.88452543 -4 12.80823068 -4 17 C-5.32 17.33 -6.64 17.66 -8 18 C-7.31595098 11.15950976 -4.38240925 5.2588911 0 0 Z " fill="#4F88E5" transform="translate(349,166)"/>
<path d="M0 0 C0.99 0.495 0.99 0.495 2 1 C4.0374763 1.22858114 6.08040303 1.41024278 8.125 1.5625 C9.76855469 1.68818359 9.76855469 1.68818359 11.4453125 1.81640625 C12.28835938 1.87699219 13.13140625 1.93757812 14 2 C13.67 3.32 13.34 4.64 13 6 C3.88 6.304 3.88 6.304 1 4 C0.25 1.875 0.25 1.875 0 0 Z " fill="#5B92E6" transform="translate(255,193)"/>
<path d="M0 0 C4.72129239 0.51682787 7.78731772 1.78064724 11.75 4.375 C12.69359375 4.98085937 13.6371875 5.58671875 14.609375 6.2109375 C17 8 17 8 19 11 C16.9375 11.4375 16.9375 11.4375 14 11 C12.07996413 9.32854021 10.42156852 7.54428733 8.74609375 5.62890625 C6.79474613 3.80852156 5.56943909 3.50859 3 3 C1.25 1.4375 1.25 1.4375 0 0 Z " fill="#4782E4" transform="translate(368,132)"/>
<path d="M0 0 C1.66747352 2.50121027 2.81930839 4.70253857 4 7.4375 C5.25611959 10.33736985 6.5635004 13.1847173 8 16 C7.01 16.33 6.02 16.66 5 17 C3.98696238 15.27843904 2.99005152 13.54738194 2 11.8125 C1.443125 10.84957031 0.88625 9.88664063 0.3125 8.89453125 C-1.02759124 5.93915145 -1.36323384 4.19532272 -1 1 C-0.67 0.67 -0.34 0.34 0 0 Z " fill="#4D85E2" transform="translate(203,152)"/>
<path d="M0 0 C0.96164062 -0.00515625 1.92328125 -0.0103125 2.9140625 -0.015625 C5.375 0.25 5.375 0.25 7.375 2.25 C4.33286733 3.77106634 1.09452428 3.62429338 -2.25 3.8125 C-3.30960937 3.87727539 -3.30960937 3.87727539 -4.390625 3.94335938 C-6.13518537 4.04944751 -7.88006697 4.15022889 -9.625 4.25 C-9.625 3.59 -9.625 2.93 -9.625 2.25 C-6.33170174 0.28338587 -3.81203427 -0.02055005 0 0 Z " fill="#3B75E3" transform="translate(262.625,178.75)"/>
<path d="M0 0 C0.66 0 1.32 0 2 0 C2 0.99 2 1.98 2 3 C1.34 3 0.68 3 0 3 C-0.2475 3.515625 -0.495 4.03125 -0.75 4.5625 C-2.39581616 7.77184151 -4.1976096 10.87585664 -6 14 C-6.99 12.68 -7.98 11.36 -9 10 C-8.01 10 -7.02 10 -6 10 C-5.34 8.02 -4.68 6.04 -4 4 C-4.99 3.67 -5.98 3.34 -7 3 C-3.535 2.505 -3.535 2.505 0 2 C0 1.34 0 0.68 0 0 Z " fill="#397AE6" transform="translate(144,144)"/>
<path d="M0 0 C3.38714355 4.5161914 3.38714355 4.5161914 3.25 9.0625 C3.23453125 9.91972656 3.2190625 10.77695313 3.203125 11.66015625 C3 14 3 14 2 17 C1.34 17 0.68 17 0 17 C-0.33 17.66 -0.66 18.32 -1 19 C-1.33 17.68 -1.66 16.36 -2 15 C-1.34 15 -0.68 15 0 15 C0 10.05 0 5.1 0 0 Z " fill="#4C85E7" transform="translate(351,146)"/>
<path d="M0 0 C5.75 0.75 5.75 0.75 8 3 C8.33 3.66 8.66 4.32 9 5 C9.99 5.66 10.98 6.32 12 7 C7.33174173 7.70731186 4.96719769 5.92277529 1.35546875 3.2890625 C0.90816406 2.86367187 0.46085937 2.43828125 0 2 C0 1.34 0 0.68 0 0 Z " fill="#6592DC" transform="translate(359,125)"/>
<path d="M0 0 C0.99 0.33 1.98 0.66 3 1 C3.8931507 7.58183362 3.95494281 13.42150508 3 20 C2.67 20 2.34 20 2 20 C1.67 15.38 1.34 10.76 1 6 C0.67 6 0.34 6 0 6 C0 4.02 0 2.04 0 0 Z " fill="#4479D9" transform="translate(321,121)"/>
<path d="M0 0 C5.7097955 0.41778991 8.60957142 2.57546571 13 6 C12.67 6.66 12.34 7.32 12 8 C10.18387512 7.04855402 8.37218919 6.08863067 6.5625 5.125 C5.55316406 4.59132812 4.54382813 4.05765625 3.50390625 3.5078125 C1 2 1 2 0 0 Z " fill="#76A2EC" transform="translate(366,128)"/>
<path d="M0 0 C0 0.99 0 1.98 0 3 C-4.26616316 4.13764351 -7.56486311 5 -12 5 C-12 4.34 -12 3.68 -12 3 C-10.56445975 2.49440092 -9.1264798 1.9957251 -7.6875 1.5 C-6.88699219 1.2215625 -6.08648437 0.943125 -5.26171875 0.65625 C-3 0 -3 0 0 0 Z " fill="#609DEC" transform="translate(201,119)"/>
<path d="M0 0 C0.99 0.33 1.98 0.66 3 1 C-0.49359465 4.59634744 -4.11098131 7.83451967 -8 11 C-7.43040847 7.37386801 -6.07625466 5.74482259 -3.4375 3.25 C-2.79683594 2.63640625 -2.15617188 2.0228125 -1.49609375 1.390625 C-1.00238281 0.93171875 -0.50867188 0.4728125 0 0 Z " fill="#6596EB" transform="translate(139,142)"/>
<path d="M0 0 C0.928125 0.2784375 0.928125 0.2784375 1.875 0.5625 C4.04160178 1.23686176 4.04160178 1.23686176 6 0 C7.5 1.375 7.5 1.375 9 3 C9 3.66 9 4.32 9 5 C9.99 5 10.98 5 12 5 C12 5.66 12 6.32 12 7 C7.0682659 6.55166054 3.6807076 4.13973905 0 1 C0 0.67 0 0.34 0 0 Z " fill="#3775E8" transform="translate(172,212)"/>
<path d="M0 0 C0.66 0.66 1.32 1.32 2 2 C1.9765625 4.6015625 1.9765625 4.6015625 1.625 7.625 C1.51414063 8.62789062 1.40328125 9.63078125 1.2890625 10.6640625 C1.19367188 11.43492187 1.09828125 12.20578125 1 13 C0.34 12.67 -0.32 12.34 -1 12 C-1.02698189 10.37509046 -1.04638757 8.75005367 -1.0625 7.125 C-1.07410156 6.22007812 -1.08570313 5.31515625 -1.09765625 4.3828125 C-1 2 -1 2 0 0 Z " fill="#4080EB" transform="translate(201,145)"/>
<path d="M0 0 C0.928125 0.20625 1.85625 0.4125 2.8125 0.625 C2.8125 1.285 2.8125 1.945 2.8125 2.625 C5.4525 2.955 8.0925 3.285 10.8125 3.625 C10.8125 3.955 10.8125 4.285 10.8125 4.625 C4.89757728 4.17275239 -0.53949888 3.4667395 -6.1875 1.625 C-3.1875 -0.375 -3.1875 -0.375 0 0 Z " fill="#4D86E1" transform="translate(206.1875,236.375)"/>
<path d="M0 0 C6.7765043 3.44985673 6.7765043 3.44985673 7.8125 6 C7.874375 6.66 7.93625 7.32 8 8 C8.6408111 9.34595073 9.30491371 10.68125921 10 12 C2.15820312 5.5546875 2.15820312 5.5546875 0 2 C0 1.34 0 0.68 0 0 Z " fill="#3976E3" transform="translate(125,221)"/>
<path d="M0 0 C-2.36595933 2.61500768 -4.86049226 4.38999603 -8 6 C-8.66 5.67 -9.32 5.34 -10 5 C-6.58244111 0.23982869 -6.58244111 0.23982869 -3.875 -0.875 C-2 -1 -2 -1 0 0 Z " fill="#4C86DF" transform="translate(373,211)"/>
<path d="M0 0 C0.66 0 1.32 0 2 0 C4.17364926 2.81769349 5.08677021 4.2190681 4.6875 7.8125 C4.460625 8.534375 4.23375 9.25625 4 10 C4.99 10.33 5.98 10.66 7 11 C6.01 11.33 5.02 11.66 4 12 C3.3291288 10.3767313 2.66342971 8.75132422 2 7.125 C1.62875 6.22007812 1.2575 5.31515625 0.875 4.3828125 C0 2 0 2 0 0 Z " fill="#2F6FDF" transform="translate(336,205)"/>
<path d="M0 0 C0.33 0 0.66 0 1 0 C1.33 3.96 1.66 7.92 2 12 C1.01 12 0.02 12 -1 12 C-1.02698189 10.37509046 -1.04638757 8.75005367 -1.0625 7.125 C-1.07410156 6.22007812 -1.08570313 5.31515625 -1.09765625 4.3828125 C-1 2 -1 2 0 0 Z " fill="#4984E1" transform="translate(132,170)"/>
<path d="M0 0 C0.33 0 0.66 0 1 0 C1.98248524 4.0527516 2.08159574 7.83861737 2 12 C0.5 11 0.5 11 -1 9 C-1.33190332 6.24520245 -1.18037589 3.79582634 -1 1 C-0.67 0.67 -0.34 0.34 0 0 Z " fill="#347AEB" transform="translate(277,292)"/>
<path d="M0 0 C2 2 2 2 2 5 C2.99 5.33 3.98 5.66 5 6 C6.1875 8.5625 6.1875 8.5625 7 11 C5.68 10.34 4.36 9.68 3 9 C3 8.34 3 7.68 3 7 C2.34 7 1.68 7 1 7 C0.67 4.69 0.34 2.38 0 0 Z " fill="#4074E2" transform="translate(239,319)"/>
<path d="M0 0 C0.33 1.32 0.66 2.64 1 4 C4.465 3.505 4.465 3.505 8 3 C5.93243723 5.7972908 4.85559629 6.02692273 1.3125 6.6875 C0.219375 6.790625 -0.87375 6.89375 -2 7 C-1.34 4.69 -0.68 2.38 0 0 Z " fill="#398DEE" transform="translate(387,224)"/>
<path d="M0 0 C0.99 0.33 1.98 0.66 3 1 C1.70700306 3.88437779 0.34058637 5.87219421 -2 8 C-2.66 7.67 -3.32 7.34 -4 7 C-2.68 4.69 -1.36 2.38 0 0 Z " fill="#4D83DC" transform="translate(397,219)"/>
<path d="M0 0 C1.48285242 0.95262034 2.96118201 1.91228405 4.4375 2.875 C5.67306641 3.67550781 5.67306641 3.67550781 6.93359375 4.4921875 C9 6 9 6 10 8 C6 6 2 4 -2 2 C-1.34 1.34 -0.68 0.68 0 0 Z " fill="#5890EF" transform="translate(345,182)"/>
<path d="M0 0 C-0.66 1.32 -1.32 2.64 -2 4 C-4.31 4 -6.62 4 -9 4 C-8.34 3.67 -7.68 3.34 -7 3 C-7 2.34 -7 1.68 -7 1 C-4.53721199 -0.231394 -2.7204945 -0.07159196 0 0 Z " fill="#789CE6" transform="translate(162,132)"/>
<path d="M0 0 C0.99 0.66 1.98 1.32 3 2 C1.68 4.31 0.36 6.62 -1 9 C-1.99 9 -2.98 9 -4 9 C-3.2884375 7.88625 -3.2884375 7.88625 -2.5625 6.75 C-1.22130673 4.38949985 -0.487688 2.63351523 0 0 Z " fill="#458CE0" transform="translate(284,317)"/>
<path d="M0 0 C0.86625 0.37125 0.86625 0.37125 1.75 0.75 C1.13125 0.811875 0.5125 0.87375 -0.125 0.9375 C-2.5090293 1.56552157 -2.5090293 1.56552157 -3.375 4.1875 C-3.66375 5.033125 -3.9525 5.87875 -4.25 6.75 C-4.91 7.41 -5.57 8.07 -6.25 8.75 C-6.62010337 5.4190697 -6.52461204 4.12268777 -4.5 1.375 C-2.25 -0.25 -2.25 -0.25 0 0 Z " fill="#4681E7" transform="translate(255.25,179.25)"/>
<path d="M0 0 C3.48331435 3.01887244 4.79157144 5.56909529 6 10 C4.35 9.67 2.7 9.34 1 9 C1.020625 8.071875 1.04125 7.14375 1.0625 6.1875 C1.15769604 2.97713989 1.15769604 2.97713989 0 0 Z " fill="#4585E7" transform="translate(400,156)"/>
<path d="M0 0 C-0.33 1.65 -0.66 3.3 -1 5 C-1.66 4.34 -2.32 3.68 -3 3 C-4.9931567 2.97624074 -4.9931567 2.97624074 -7.125 3.375 C-8.40375 3.58125 -9.6825 3.7875 -11 4 C-7.35237315 0.18657193 -5.28949249 -0.11498897 0 0 Z " fill="#3774E7" transform="translate(253,104)"/>
<path d="M0 0 C2.31 0 4.62 0 7 0 C7.33 0.66 7.66 1.32 8 2 C5.29120665 3.35439668 2.99066732 3.06501451 0 3 C0 2.01 0 1.02 0 0 Z " fill="#4684E6" transform="translate(227,267)"/>
<path d="M0 0 C7.75 0.75 7.75 0.75 10 3 C6.67465243 4.10844919 4.37817425 3.84454356 1 3 C0.67 2.01 0.34 1.02 0 0 Z " fill="#4480E0" transform="translate(204,263)"/>
<path d="M0 0 C1.65 0.33 3.3 0.66 5 1 C2.75 3.0625 2.75 3.0625 0 5 C-2.3125 4.75 -2.3125 4.75 -4 4 C-3.67 3.34 -3.34 2.68 -3 2 C-2.34 2 -1.68 2 -1 2 C-0.67 1.34 -0.34 0.68 0 0 Z " fill="#3F7EE2" transform="translate(344,211)"/>
<path d="M0 0 C0 3.41987028 -0.47254343 5.94508687 -2 9 C-2.99 9 -3.98 9 -5 9 C-3.7508258 5.54074837 -2.32472205 2.85306797 0 0 Z " fill="#3E95E9" transform="translate(210,195)"/>
<path d="M0 0 C0 0.99 0 1.98 0 3 C-3.73487777 2.5020163 -5.81237635 2.12508244 -9 0 C-5.67465243 -1.10844919 -3.37817425 -0.84454356 0 0 Z " fill="#5589EB" transform="translate(199,234)"/>
<path d="M0 0 C0.33 0.99 0.66 1.98 1 3 C-1.97 4.32 -4.94 5.64 -8 7 C-8 6.34 -8 5.68 -8 5 C-6.25 3.7109375 -6.25 3.7109375 -4 2.375 C-3.2575 1.92898437 -2.515 1.48296875 -1.75 1.0234375 C-1.1725 0.68570313 -0.595 0.34796875 0 0 Z " fill="#4893EF" transform="translate(181,180)"/>
<path d="M0 0 C3.465 1.98 3.465 1.98 7 4 C7 4.66 7 5.32 7 6 C4.03824877 5.38722388 2.61941217 4.74627478 0 3 C0 2.01 0 1.02 0 0 Z " fill="#5D9DEA" transform="translate(379,134)"/>
<path d="M0 0 C4.21912747 0.4794463 6.79663178 1.16625119 10 4 C6.3538596 4 4.02392714 3.91422066 1.25 1.4375 C0.8375 0.963125 0.425 0.48875 0 0 Z " fill="#5287DD" transform="translate(368,132)"/>
<path d="M0 0 C3.79588866 0.54226981 5.47211993 2.20127563 8 5 C4.75791433 4.64950425 3.38472296 4.43778819 1.1875 1.9375 C0.795625 1.298125 0.40375 0.65875 0 0 Z " fill="#508BF0" transform="translate(150,211)"/>
<path d="M0 0 C0 0.66 0 1.32 0 2 C-0.66 2 -1.32 2 -2 2 C-2 2.66 -2 3.32 -2 4 C-3.98 4.33 -5.96 4.66 -8 5 C-3.375 0 -3.375 0 0 0 Z " fill="#4582E7" transform="translate(146,142)"/>
<path d="M0 0 C0.33 0.99 0.66 1.98 1 3 C-0.98 3.99 -2.96 4.98 -5 6 C-5 5.34 -5 4.68 -5 4 C-5.66 3.67 -6.32 3.34 -7 3 C-4.69 2.01 -2.38 1.02 0 0 Z " fill="#4285DA" transform="translate(277,328)"/>
<path d="M0 0 C3.26460973 1.80412643 4.88929795 2.83394693 7 6 C5.35 6 3.7 6 2 6 C2 5.01 2 4.02 2 3 C1.34 2.67 0.68 2.34 0 2 C0 1.34 0 0.68 0 0 Z " fill="#4082E7" transform="translate(284,100)"/>
</svg>
